<?xml version="1.0" encoding="UTF-8"?>
<svg width="1187px" height="807px" viewBox="0 0 1187 807" version="1.1" xmlns="http://www.w3.org/2000/svg" xmlns:xlink="http://www.w3.org/1999/xlink">
    <!-- Generator: Sketch 52.4 (67378) - http://www.bohemiancoding.com/sketch -->
    <title>Group</title>
    <desc>Created with Sketch.</desc>
    <g id="numbers" stroke="none" stroke-width="1" fill="none" fill-rule="evenodd">
        <g id="Group" transform="translate(628.904228, 472.490420) rotate(-39.000000) translate(-628.904228, -472.490420) translate(-52.095772, 125.490420)">
            <g id="THREE" transform="translate(494.000000, 195.000000)">
                <path d="M324.145616,234.127972 L423.414906,179.840518 L489.500835,210.083213 C539.799571,233.101264 610.883833,228.829445 664.697464,199.843384 C713.950618,173.313768 719.585616,138.889639 666.899863,115.199528 C612.345821,90.6693417 545.093249,93.9713382 483.558637,123.97934 L380.261158,77.1031627 C501.971747,13.441852 658.810397,3.91454031 781.560736,58.5194067 C902.422608,112.284198 888.080952,185.669956 790.469664,237.332949 C709.454964,280.152737 616.163228,289.920217 542.037943,273.212391 L533.366673,277.879638 C593.476524,318.774341 578.885075,370.714675 489.759368,418.12408 C372.926187,480.272161 206.420225,484.254979 91.5732575,429.482097 C-23.2737096,374.709216 -22.5979636,293.685155 93.7097246,224.439988 L197.704429,272.996315 C146.29395,304.47709 148.429787,341.110925 203.686402,367.153246 C258.230027,392.859537 334.275521,390.448638 391.354745,359.743065 C449.803871,328.300557 449.533598,292.093137 390.655763,264.874712 L324.145616,234.127972 Z" id="3-copy-9" fill="#66FCD9"></path>
                <path d="M854.682017,151.003433 C876.549411,191.777858 848.324144,234.818154 784.514377,268.578771 C713.500009,306.099441 633.052458,318.233177 564.349377,309.408093 M555.502525,336.343634 C578.033021,371.720783 554.106212,411.921879 483.80408,449.30484 C366.970899,511.430555 200.464937,515.411939 85.6179697,460.658769 C13.3748705,426.216948 -13.1571936,381.39157 6.04896491,335.645034 M195.371706,249.174783 L191.749141,304.229303 C181.290857,310.63104 173.048458,317.245948 167.018361,323.941531 M415.320615,315.478531 C408.022731,308.678011 397.815606,302.171387 384.700475,296.110622 L318.190328,265.374947 L314.034611,211.029893 M683.107301,159.63007 C677.410388,154.993498 670.048095,150.58122 660.944575,146.489303 C606.390533,121.967944 539.137961,125.268752 477.60335,155.265955 L374.30587,108.406647 L370.010968,54" id="Shape" stroke="#000000" stroke-width="5"></path>
                <path d="M318.190328,211.290841 L417.459618,157.003387 L483.545548,187.246082 C533.844283,210.264133 604.928545,205.992314 658.742176,177.006253 C707.995331,150.476637 713.630329,116.052508 660.944575,92.362397 C606.390533,67.8322108 539.137961,71.1342073 477.60335,101.142209 L374.30587,54.2660318 C496.016459,-9.39527889 652.85511,-18.9225906 775.605448,35.6822758 C896.46732,89.4470674 882.125664,162.832825 784.514377,214.495818 C703.499676,257.315606 610.207941,267.083086 536.082655,250.37526 L527.411385,255.042507 C587.521236,295.93721 572.929787,347.877544 483.80408,395.286949 C366.970899,457.43503 200.464937,461.417848 85.6179697,406.644966 C-29.2289974,351.872085 -28.5532514,270.848024 87.7544368,201.602857 L191.749141,250.159184 C140.338662,281.639959 142.4745,318.273794 197.731114,344.316115 C252.274739,370.022406 328.320233,367.611507 385.399457,336.905934 C443.848583,305.463426 443.57831,269.256007 384.700475,242.037581 L318.190328,211.290841 Z" id="3-copy-9" stroke="#000000" stroke-width="5"></path>
            </g>
            <g id="TWO" transform="translate(137.000000, 70.000000)" stroke="#000000" stroke-width="5">
                <path d="M493,147 C480.645048,140.171123 466.264301,136.111846 451.010523,134.738145 C434.689013,133.268289 410.435128,139.924652 372.452891,147 L304.09727,92.4061063 L304,38" id="Path"></path>
                <path d="M372.5,146 L372.5,89" id="Line-Copy" stroke-linecap="square"></path>
                <path d="M248.643862,438.279412 L248.643862,390" id="Line-Copy-3" stroke-linecap="square"></path>
                <path d="M614.500671,148 C638.067468,188.561573 617.382824,237.129179 556.918276,266.409239 C504.322836,292.991968 453.155764,299.56311 333.001524,296.182603 L253,296.182603" id="Path"></path>
                <polyline id="Path" points="319 341.454742 319 399.160988 249.374238 442 4 266.260265 4 216"></polyline>
                <path d="M312.350563,38.8612199 C404.587009,-4.54604739 519.112336,3.89666562 588.224069,56.2746368 C652.545493,105.25252 634.911879,162.831357 557.195463,201.323114 C504.318974,228.619054 453.070358,235.897772 332.911744,234.192238 L181.420713,230.695777 L176.008663,233.724803 L311.670192,341.063153 L241.85481,382.592701 L6.55684229,205.239557 L69.5005931,169.973066 L333.742507,176.821843 C426.934631,178.509405 456.004545,174.244054 486.637455,158.772681 C523.28355,140.647097 535.158225,113.260273 504.843948,90.2487506 C472.676037,65.8923542 420.716002,65.3582975 376.288036,86.8421315 L312.350563,38.8612199 Z" id="2-copy-3" transform="translate(317.040146, 196.794622) rotate(-2.000000) translate(-317.040146, -196.794622) "></path>
            </g>
            <g id="ONE" transform="translate(0.510934, 0.726734)" stroke="#000000" stroke-width="5">
                <polyline id="Path" points="354.502157 45.0610367 354.194556 71.4228052 46.2419666 248.617668 0.0744636421 218.819294 0.0744636421 191.712482"></polyline>
                <polyline id="Path" points="217.419168 68.7404052 162.23119 62.7999683 161.059653 35.4202805"></polyline>
                <polygon id="1-copy" points="2.41176471 191.783016 257.219301 45.278893 255.027145 43.3767651 166.171353 33.8491674 222.073897 0 315.655793 13.3822994 352.672906 44.7803642 46.2419666 219.205903"></polygon>
                <path d="M46.3702274,218.354152 L46.3702274,248.617668" id="Path-4"></path>
            </g>
        </g>
    </g>
</svg>