<?xml version="1.0" encoding="UTF-8"?>
<svg width="137px" height="118px" viewBox="0 0 137 118" version="1.1" xmlns="http://www.w3.org/2000/svg" xmlns:xlink="http://www.w3.org/1999/xlink">
    <!-- Generator: Sketch 52.4 (67378) - http://www.bohemiancoding.com/sketch -->
    <title>button</title>
    <desc>Created with Sketch.</desc>
    <g id="button" stroke="none" stroke-width="1" fill="none" fill-rule="evenodd">
        <g transform="translate(-8.000000, -3.000000)">
            <g id="colour-layers" transform="translate(4.000000, 0.000000)">
                <path d="M86.7671578,33.9666985 L13.7282449,75.0664735 C9.39641395,77.5040409 7.86080999,82.9917225 10.2983774,87.3235534 C11.0866632,88.7244258 12.2357487,89.8886141 13.626209,90.6951239 L37.6378943,104.62264 C44.4690432,108.584917 52.8998386,108.58187 59.7281213,104.614656 L132.211056,62.5022661 C136.508886,60.0052383 137.968725,54.4969173 135.471697,50.199087 C134.642663,48.7721718 133.437258,47.600668 131.98728,46.8126664 L108.060956,33.8097266 C101.408852,30.1945908 93.3652423,30.2538861 86.7671578,33.9666985 Z" id="Path-Copy-3" fill="#EBEEEF" style="mix-blend-mode: multiply;"></path>
                <path d="M86.7671578,20.9666985 L13.7282449,62.0664735 C9.39641395,64.5040409 7.86080999,69.9917225 10.2983774,74.3235534 C11.0866632,75.7244258 12.2357487,76.8886141 13.626209,77.6951239 L37.6378943,91.6226405 C44.4690432,95.5849171 52.8998386,95.5818698 59.7281213,91.6146559 L132.211056,49.5022661 C136.508886,47.0052383 137.968725,41.4969173 135.471697,37.199087 C134.642663,35.7721718 133.437258,34.600668 131.98728,33.8126664 L108.060956,20.8097266 C101.408852,17.1945908 93.3652423,17.2538861 86.7671578,20.9666985 Z" id="Path-Copy-2" fill="#50E3C2"></path>
                <path d="M86.7671578,5.96669851 L13.7282449,47.0664735 C9.39641395,49.5040409 7.86080999,54.9917225 10.2983774,59.3235534 C11.0866632,60.7244258 12.2357487,61.8886141 13.626209,62.6951239 L37.6378943,76.6226405 C44.4690432,80.5849171 52.8998386,80.5818698 59.7281213,76.6146559 L132.211056,34.5022661 C136.508886,32.0052383 137.968725,26.4969173 135.471697,22.199087 C134.642663,20.7721718 133.437258,19.600668 131.98728,18.8126664 L108.060956,5.80972656 C101.408852,2.19459082 93.3652423,2.25388608 86.7671578,5.96669851 Z" id="Path-Copy-6" fill-opacity="0.3" fill="#000000" style="mix-blend-mode: multiply;"></path>
            </g>
            <path d="M91.3646249,42.0083685 L13.6609846,85.9064068 C9.33328669,88.3513044 7.80697551,93.841578 10.2518732,98.1692759 C11.0374047,99.5597402 12.1787758,100.716143 13.5588439,101.519799 L39.9198413,116.870616 C46.7675519,120.858247 55.2306617,120.855182 62.0754822,116.862592 L139.223543,71.8620506 C143.51707,69.3576317 144.967429,63.8468071 142.46301,59.5532794 C141.636732,58.1367232 140.439112,56.9728538 138.999521,56.1873951 L112.72298,41.85059 C106.053852,38.2118315 97.9792674,38.2714801 91.3646249,42.0083685 Z" stroke="#000000"></path>
        </g>
    </g>
</svg>